<svg xmlns="http://www.w3.org/2000/svg" viewBox="0 0 256 256" role="img" aria-labelledby="title description">
  <title id="title">lzug Bildmarkenentwurf Prüfling mit Ergebnis</title>
  <desc id="description">Ein großer Prüfling mit kleinem Prüfzeichen steht vor einem abstrahierten Prüfungsausschuss. Bühnenrahmen und Lichtkegel bleiben im Hintergrund.</desc>
  <style>
    :root { --brand-ink: #2d235c; --brand-accent: #f3b33d; }
    @media (prefers-color-scheme: dark) { :root { --brand-ink: #f7f4ff; --brand-accent: #ffc85a; } }
  </style>
  <path d="M48 181V65c0-11 9-20 20-20h120c11 0 20 9 20 20v116" fill="none" stroke="var(--brand-ink)" stroke-linecap="round" stroke-linejoin="round" stroke-opacity=".42" stroke-width="10" />
  <path d="M128 52 91 180h74z" fill="var(--brand-accent)" opacity=".23" />
  <g fill="var(--brand-ink)" opacity=".58">
    <circle cx="65" cy="177" r="9" /><circle cx="91" cy="184" r="8" /><circle cx="165" cy="184" r="8" /><circle cx="191" cy="177" r="9" />
    <path d="M49 205v-8c0-13 7-22 16-22s16 9 16 22v8z" /><path d="M77 205v-7c0-12 6-20 14-20s14 8 14 20v7z" /><path d="M151 205v-7c0-12 6-20 14-20s14 8 14 20v7z" /><path d="M175 205v-8c0-13 7-22 16-22s16 9 16 22v8z" />
  </g>
  <g fill="var(--brand-ink)"><circle cx="128" cy="91" r="29" /><path d="M82 180v-20c0-31 20-53 46-53s46 22 46 53v20z" /></g>
  <circle cx="128" cy="145" r="20" fill="var(--brand-accent)" />
  <path d="m117 145 8 8 16-19" fill="none" stroke="var(--brand-ink)" stroke-linecap="round" stroke-linejoin="round" stroke-width="7" />
  <path d="M48 211h160" fill="none" stroke="var(--brand-ink)" stroke-linecap="round" stroke-opacity=".42" stroke-width="10" />
</svg>
