<svg xmlns="http://www.w3.org/2000/svg" viewBox="0 0 256 256" role="img" aria-labelledby="title description">
  <title id="title">lzug Bildmarkenentwurf Urkunde</title>
  <desc id="description">Ein leicht abstrahierter Prüfling mit Urkunde steht vor einem Prüfungsausschuss aus vier Köpfen und reduzierten Büsten. Bühne und Lichtkegel bleiben im Hintergrund.</desc>
  <style>
    :root { --brand-ink: #2d235c; --brand-accent: #f3b33d; }
    @media (prefers-color-scheme: dark) { :root { --brand-ink: #f7f4ff; --brand-accent: #ffc85a; } }
  </style>
  <path d="M50 184V66c0-11 9-20 20-20h116c11 0 20 9 20 20v118" fill="none" stroke="var(--brand-ink)" stroke-linecap="round" stroke-linejoin="round" stroke-opacity=".35" stroke-width="8" />
  <path d="M128 54 101 184h54z" fill="var(--brand-accent)" opacity=".17" />
  <g fill="var(--brand-ink)" stroke="var(--brand-ink)" stroke-linecap="round" stroke-width="8" opacity=".64">
    <circle cx="67" cy="179" r="8" stroke="none" /><circle cx="92" cy="185" r="7" stroke="none" /><circle cx="164" cy="185" r="7" stroke="none" /><circle cx="189" cy="179" r="8" stroke="none" />
    <path d="M53 205c0-13 6-21 14-21s14 8 14 21M80 205c0-12 5-19 12-19s12 7 12 19M152 205c0-12 5-19 12-19s12 7 12 19M175 205c0-13 6-21 14-21s14 8 14 21" fill="none" />
  </g>
  <circle cx="128" cy="96" r="22" fill="var(--brand-ink)" />
  <path d="M88 174c0-35 17-57 40-57s40 22 40 57" fill="none" stroke="var(--brand-ink)" stroke-linecap="round" stroke-width="13" />
  <rect x="113" y="132" width="30" height="38" rx="3" fill="var(--brand-accent)" />
  <path d="M120 142h16M120 150h11" fill="none" stroke="var(--brand-ink)" stroke-linecap="round" stroke-width="4" />
  <circle cx="135" cy="161" r="5" fill="var(--brand-ink)" />
  <path d="M50 214h156" fill="none" stroke="var(--brand-ink)" stroke-linecap="round" stroke-opacity=".35" stroke-width="8" />
</svg>
